# xmcd CD database file
#
# Track frame offsets:
#	150
#	12577
#	26935
#	40590
#	52400
#	65940
#	80205
#	98555
#	109275
#	121950
#	137040
#	156085
#	169150
#	182987
#	196110
#
# Disc length: 2768 seconds
#
# Revision: 1
# Processed by: cddbd v1.5.2PL0 Copyright (c) Steve Scherf et al.
# Submitted via: CDex 1.70beta2
#
DISCID=dd0ace0f
DTITLE=Various Artist - The Time-Life Treasury of the Blues (Vol 2, Disc 1)
DYEAR=2003
DGENRE=Blues
TTITLE0=Spoonful - Howlin' Wolf
TTITLE1=Rock Me - Muddy Waters
TTITLE2=Sweet Little Angel - B. B. King
TTITLE3=Lonely Avenue - Ray Charles
TTITLE4=Farther up the Road - Bobby Bland
TTITLE5=Help Me - Sonny Williamson
TTITLE6=Feel So Bad - Little Milton
TTITLE7=Tell Mama - Etta James
TTITLE8=The Hunter - Ike and Tina Turner
TTITLE9=Everybody Knows about My Good Thing - Little Johnny Taylor
TTITLE10=Sweet Home Chicago - Luther Allison
TTITLE11=Big Boss Man - Jimmy Reed
TTITLE12=I'm a King Bee - Slim Harpo
TTITLE13=Gangster of Love - Johnny "Guitar" Watson
TTITLE14=Shake Your Moneymaker - Elmore James
EXTD=YEAR: 2003
EXTT0=
EXTT1=
EXTT2=
EXTT3=
EXTT4=
EXTT5=
EXTT6=
EXTT7=
EXTT8=
EXTT9=
EXTT10=
EXTT11=
EXTT12=
EXTT13=
EXTT14=
PLAYORDER=
